<svg width="40" height="40" viewBox="0 0 40 40" fill="none" xmlns="http://www.w3.org/2000/svg">
<path fill-rule="evenodd" clip-rule="evenodd" d="M3.3335 11.6666C3.3335 7.06421 7.06446 3.33325 11.6668 3.33325H28.3335C32.9359 3.33325 36.6668 7.06421 36.6668 11.6666V28.3333C36.6668 32.9356 32.9359 36.6666 28.3335 36.6666H11.6668C7.06446 36.6666 3.3335 32.9356 3.3335 28.3333V11.6666ZM11.6668 6.66659C8.90541 6.66659 6.66683 8.90516 6.66683 11.6666V28.3333C6.66683 31.0947 8.90541 33.3333 11.6668 33.3333H28.3335C31.0949 33.3333 33.3335 31.0947 33.3335 28.3333V11.6666C33.3335 8.90516 31.0949 6.66659 28.3335 6.66659H11.6668Z" fill="white"/>
<path fill-rule="evenodd" clip-rule="evenodd" d="M13.3332 16.6667C14.2536 16.6667 14.9998 17.4129 14.9998 18.3334L14.9998 26.6667C14.9998 27.5872 14.2536 28.3334 13.3332 28.3334C12.4127 28.3334 11.6665 27.5872 11.6665 26.6667L11.6665 18.3334C11.6665 17.4129 12.4127 16.6667 13.3332 16.6667Z" fill="white"/>
<path fill-rule="evenodd" clip-rule="evenodd" d="M26.6667 20C27.5871 20 28.3333 20.7462 28.3333 21.6667V26.6667C28.3333 27.5871 27.5871 28.3333 26.6667 28.3333C25.7462 28.3333 25 27.5871 25 26.6667L25 21.6667C25 20.7462 25.7462 20 26.6667 20Z" fill="white"/>
<path fill-rule="evenodd" clip-rule="evenodd" d="M20.0002 11.6667C20.9206 11.6667 21.6668 12.4129 21.6668 13.3334L21.6668 26.6667C21.6668 27.5872 20.9206 28.3334 20.0002 28.3334C19.0797 28.3334 18.3335 27.5872 18.3335 26.6667L18.3335 13.3334C18.3335 12.4129 19.0797 11.6667 20.0002 11.6667Z" fill="white"/>
</svg>
