<svg width="40" height="40" viewBox="0 0 40 40" fill="none" xmlns="http://www.w3.org/2000/svg">
<path fill-rule="evenodd" clip-rule="evenodd" d="M3.3335 13.3334C3.3335 9.65152 6.31826 6.66675 10.0002 6.66675H30.0002C33.6821 6.66675 36.6668 9.65152 36.6668 13.3334V26.6667C36.6668 30.3486 33.6821 33.3334 30.0002 33.3334H10.0002C6.31827 33.3334 3.3335 30.3486 3.3335 26.6667V13.3334ZM10.0002 10.0001C8.15921 10.0001 6.66683 11.4925 6.66683 13.3334V26.6667C6.66683 28.5077 8.15921 30.0001 10.0002 30.0001H30.0002C31.8411 30.0001 33.3335 28.5077 33.3335 26.6667V13.3334C33.3335 11.4925 31.8411 10.0001 30.0002 10.0001H10.0002Z" fill="white"/>
<path fill-rule="evenodd" clip-rule="evenodd" d="M35 18.3333H5V15H35V18.3333Z" fill="white"/>
<path fill-rule="evenodd" clip-rule="evenodd" d="M21.6665 24.9999C21.6665 24.0794 22.4127 23.3333 23.3332 23.3333L28.3332 23.3333C29.2536 23.3333 29.9998 24.0794 29.9998 24.9999C29.9998 25.9204 29.2536 26.6666 28.3332 26.6666L23.3332 26.6666C22.4127 26.6666 21.6665 25.9204 21.6665 24.9999Z" fill="white"/>
</svg>
