<svg width="40" height="40" viewBox="0 0 40 40" fill="none" xmlns="http://www.w3.org/2000/svg">
<path fill-rule="evenodd" clip-rule="evenodd" d="M6.6665 9.99992C6.6665 6.31802 9.65127 3.33325 13.3332 3.33325H26.6665C30.3484 3.33325 33.3332 6.31802 33.3332 9.99992V29.9999C33.3332 33.6818 30.3484 36.6666 26.6665 36.6666H13.3332C9.65127 36.6666 6.6665 33.6818 6.6665 29.9999V9.99992ZM13.3332 6.66659C11.4922 6.66659 9.99984 8.15897 9.99984 9.99992V29.9999C9.99984 31.8409 11.4922 33.3333 13.3332 33.3333H26.6665C28.5075 33.3333 29.9998 31.8409 29.9998 29.9999V9.99992C29.9998 8.15897 28.5075 6.66659 26.6665 6.66659H13.3332Z" fill="white"/>
<path fill-rule="evenodd" clip-rule="evenodd" d="M13.3335 3.33325H13.5187C15.5896 3.33325 17.3297 4.74967 17.8231 6.66659H22.1772C22.6706 4.74967 24.4107 3.33325 26.4816 3.33325H26.6668V6.66659H26.4816C25.868 6.66659 25.3705 7.16405 25.3705 7.7777C25.3705 9.005 24.3756 9.99992 23.1483 9.99992H16.852C15.6247 9.99992 14.6298 9.005 14.6298 7.7777C14.6298 7.16405 14.1323 6.66659 13.5187 6.66659H13.3335V3.33325Z" fill="white"/>
<path fill-rule="evenodd" clip-rule="evenodd" d="M26.1401 17.1175C26.8116 17.7471 26.8457 18.8018 26.2161 19.4733L19.9661 26.14C19.369 26.7769 18.3817 26.8451 17.7027 26.2964L13.9527 23.2661C13.2367 22.6876 13.1254 21.6382 13.7039 20.9223C14.2824 20.2063 15.3318 20.0949 16.0478 20.6735L18.5934 22.7305L23.7843 17.1935C24.4139 16.522 25.4686 16.488 26.1401 17.1175Z" fill="white"/>
</svg>
