<svg width="40" height="40" viewBox="0 0 40 40" fill="none" xmlns="http://www.w3.org/2000/svg">
<path fill-rule="evenodd" clip-rule="evenodd" d="M17.1438 6.51348C18.4393 4.36074 21.5603 4.36074 22.8559 6.51348L26.0012 11.7399L31.9437 13.1162C34.3914 13.6831 35.3559 16.6513 33.7088 18.5487L29.7102 23.1551L30.2376 29.2321C30.4548 31.7352 27.9299 33.5697 25.6164 32.5896L19.9998 30.2101L14.3832 32.5896C12.0698 33.5697 9.54484 31.7352 9.76208 29.2321L10.2895 23.1551L6.29082 18.5487C4.64379 16.6513 5.60824 13.6831 8.05595 13.1162L13.9985 11.7399L17.1438 6.51348ZM19.9998 8.23226L16.8545 13.4587C16.3891 14.232 15.6299 14.7836 14.7506 14.9873L8.80805 16.3636L12.8067 20.97C13.3984 21.6516 13.6884 22.5441 13.6103 23.4433L13.0829 29.5203L18.6995 27.1408C19.5306 26.7887 20.469 26.7887 21.3001 27.1408L26.9167 29.5203L26.3893 23.4433C26.3113 22.5441 26.6013 21.6516 27.193 20.97L31.1916 16.3636L25.2491 14.9873C24.3697 14.7836 23.6106 14.232 23.1451 13.4587L19.9998 8.23226Z" fill="white"/>
</svg>
