<svg width="193" height="60" viewBox="0 0 193 60" fill="none" xmlns="http://www.w3.org/2000/svg">
<path d="M59.9044 20.9999C59.8909 21.0017 59.8773 20.9984 59.8662 20.9906C59.8551 20.9829 59.8473 20.9712 59.8444 20.9579C58.4985 15.655 55.4232 10.952 51.1048 7.59275C46.7864 4.2335 41.4715 2.40967 36.0004 2.40967C30.5293 2.40967 25.2143 4.2335 20.896 7.59275C16.5776 10.952 13.5023 15.655 12.1564 20.9579C12.1535 20.9712 12.1457 20.9829 12.1346 20.9906C12.1235 20.9984 12.1098 21.0017 12.0964 20.9999C10.4704 20.9999 5.40039 21.2099 5.40039 25.5179C5.40039 30.6539 6.00039 35.1179 9.00039 37.7099C10.2964 38.8199 12.4864 39.0899 14.5624 39.0419C15.8606 39.0004 17.1541 38.8641 18.4324 38.6339C18.4425 38.6331 18.4521 38.6296 18.4602 38.6236C18.4684 38.6176 18.4747 38.6095 18.4784 38.6001C18.4822 38.5908 18.4832 38.5805 18.4814 38.5706C18.4797 38.5607 18.4751 38.5514 18.4684 38.5439C16.203 35.1204 14.9968 31.1051 15.0004 26.9999C15.0004 26.9399 15.0004 26.8739 15.0004 26.8139C15.0004 21.2444 17.2129 15.9029 21.1511 11.9647C25.0894 8.02641 30.4308 5.81392 36.0004 5.81392C41.5699 5.81392 46.9114 8.02641 50.8496 11.9647C54.7879 15.9029 57.0004 21.2444 57.0004 26.8139C57.0004 26.8739 57.0004 26.9399 57.0004 26.9999C57.004 31.1051 55.7978 35.1204 53.5324 38.5439C53.5256 38.5514 53.5211 38.5607 53.5193 38.5706C53.5176 38.5805 53.5186 38.5908 53.5224 38.6001C53.5261 38.6095 53.5324 38.6176 53.5405 38.6236C53.5487 38.6296 53.5583 38.6331 53.5684 38.6339C54.8467 38.8641 56.1402 39.0004 57.4384 39.0419C59.5144 39.0899 61.7044 38.8199 63.0004 37.7099C66.0004 35.1479 66.6004 30.6539 66.6004 25.5179C66.6004 21.2099 61.5304 20.9999 59.9044 20.9999Z" fill="white"/>
<path d="M36.0004 44.3999L20.0404 39.0779C20.0272 39.0729 20.0125 39.0727 19.9991 39.0773C19.9858 39.082 19.9745 39.0913 19.9673 39.1036C19.9601 39.1158 19.9574 39.1302 19.9599 39.1442C19.9623 39.1581 19.9695 39.1708 19.9804 39.1799L35.9584 55.1579C35.9696 55.1689 35.9847 55.1751 36.0004 55.1751C36.0161 55.1751 36.0312 55.1689 36.0424 55.1579L52.0204 39.1799C52.0313 39.1708 52.0386 39.1581 52.041 39.1442C52.0434 39.1302 52.0407 39.1158 52.0335 39.1036C52.0264 39.0913 52.0151 39.082 52.0017 39.0773C51.9883 39.0727 51.9737 39.0729 51.9604 39.0779L36.0004 44.3999Z" fill="white"/>
<path d="M50.2081 28.1401L54.0001 27.0001C54.0133 26.9986 54.0256 26.9923 54.0344 26.9823C54.0433 26.9723 54.0481 26.9594 54.0481 26.9461C54.0375 25.5425 53.8623 24.1449 53.5261 22.7821C53.5227 22.7697 53.5158 22.7586 53.5062 22.7501C53.4966 22.7415 53.4848 22.736 53.4721 22.7341L49.6141 22.3861C49.6015 22.3861 49.5892 22.3821 49.579 22.3748C49.5688 22.3674 49.5611 22.357 49.5571 22.3451C49.5532 22.3331 49.553 22.3202 49.5568 22.3082C49.5605 22.2962 49.568 22.2857 49.5781 22.2781L52.4461 19.7701C52.4519 19.759 52.4549 19.7466 52.4549 19.7341C52.4549 19.7216 52.4519 19.7092 52.4461 19.6981C51.8615 18.4024 51.1264 17.18 50.2561 16.0561C50.2466 16.0488 50.235 16.0448 50.2231 16.0448C50.2111 16.0448 50.1995 16.0488 50.1901 16.0561L46.6441 17.2561C46.6328 17.2597 46.6207 17.2599 46.6094 17.2567C46.598 17.2535 46.5878 17.247 46.5802 17.238C46.5725 17.2291 46.5676 17.218 46.5662 17.2063C46.5647 17.1946 46.5668 17.1827 46.5721 17.1721L48.1141 13.8001C48.121 13.7894 48.1247 13.7769 48.1247 13.7641C48.1247 13.7513 48.121 13.7388 48.1141 13.7281C47.0496 12.7647 45.8731 11.9327 44.6101 11.2501C44.6006 11.2428 44.589 11.2388 44.5771 11.2388C44.5651 11.2388 44.5535 11.2428 44.5441 11.2501L41.8621 13.7281C41.8537 13.7363 41.8431 13.7419 41.8315 13.7442C41.82 13.7464 41.8081 13.7452 41.7972 13.7407C41.7864 13.7363 41.777 13.7287 41.7704 13.719C41.7638 13.7093 41.7602 13.6978 41.7601 13.6861L41.8141 10.0861C41.8147 10.0729 41.8109 10.0598 41.8033 10.049C41.7957 10.0381 41.7847 10.0301 41.7721 10.0261C40.4114 9.56861 39.0018 9.27258 37.5721 9.14411C37.5588 9.1435 37.5458 9.14729 37.5349 9.15489C37.5241 9.16249 37.516 9.17346 37.5121 9.18611L36.0841 12.5101C36.0792 12.5203 36.0715 12.5288 36.0619 12.5348C36.0524 12.5408 36.0413 12.544 36.0301 12.544C36.0188 12.544 36.0077 12.5408 35.9982 12.5348C35.9886 12.5288 35.981 12.5203 35.9761 12.5101L34.5541 9.18611C34.548 9.1741 34.5385 9.16422 34.5267 9.15779C34.5149 9.15136 34.5014 9.14868 34.4881 9.15011C33.0577 9.2775 31.6476 9.57562 30.2881 10.0381C30.2763 10.0434 30.2663 10.0518 30.2589 10.0624C30.2515 10.0729 30.2471 10.0853 30.2461 10.0981L30.2941 13.7281C30.2961 13.74 30.2941 13.7522 30.2883 13.7628C30.2826 13.7734 30.2735 13.7818 30.2625 13.7866C30.2514 13.7914 30.2391 13.7924 30.2274 13.7894C30.2158 13.7864 30.2054 13.7796 30.1981 13.7701L27.4801 11.2561C27.4694 11.2491 27.4568 11.2454 27.4441 11.2454C27.4313 11.2454 27.4188 11.2491 27.4081 11.2561C26.1468 11.9386 24.9723 12.7706 23.9101 13.7341C23.9031 13.7448 23.8994 13.7573 23.8994 13.7701C23.8994 13.7829 23.9031 13.7954 23.9101 13.8061L25.4641 17.1661C25.4675 17.1772 25.468 17.189 25.4655 17.2004C25.4629 17.2117 25.4574 17.2222 25.4494 17.2307C25.4415 17.2393 25.4315 17.2456 25.4204 17.249C25.4092 17.2524 25.3974 17.2528 25.3861 17.2501L21.8461 16.0501C21.8354 16.0431 21.8228 16.0394 21.8101 16.0394C21.7973 16.0394 21.7848 16.0431 21.7741 16.0501C20.9098 17.1769 20.1808 18.4013 19.6021 19.6981C19.5951 19.7088 19.5914 19.7213 19.5914 19.7341C19.5914 19.7469 19.5951 19.7594 19.6021 19.7701L22.4761 22.2841C22.484 22.2921 22.4896 22.3022 22.4921 22.3132C22.4946 22.3243 22.4939 22.3358 22.4901 22.3464C22.4864 22.3571 22.4797 22.3665 22.4708 22.3735C22.462 22.3805 22.4513 22.3849 22.4401 22.3861L18.6001 22.7461C18.5879 22.7468 18.5761 22.7512 18.5665 22.7587C18.5568 22.7662 18.5497 22.7764 18.5461 22.7881C18.2017 24.1499 18.0184 25.5475 18.0001 26.9521C17.9995 26.9653 18.0032 26.9784 18.0108 26.9893C18.0184 27.0001 18.0294 27.0081 18.0421 27.0121L21.8401 28.2001C21.8502 28.205 21.8588 28.2127 21.8647 28.2222C21.8707 28.2318 21.8739 28.2428 21.8739 28.2541C21.8739 28.2654 21.8707 28.2764 21.8647 28.286C21.8588 28.2955 21.8502 28.3032 21.8401 28.3081L18.3361 30.2641C18.3283 30.2854 18.3283 30.3088 18.3361 30.3301C18.5955 31.7269 19.0184 33.0882 19.5961 34.3861C19.7881 34.8121 19.9981 35.2261 20.1961 35.6341C20.2078 35.6378 20.2203 35.6378 20.2321 35.6341L36.0001 40.8961L51.8041 35.6281C51.8118 35.6258 51.8189 35.6219 51.8251 35.6168C51.8313 35.6116 51.8364 35.6053 51.8401 35.5981C52.7341 33.9294 53.3636 32.132 53.7061 30.2701C53.7089 30.2573 53.7076 30.244 53.7022 30.2321C53.6967 30.2201 53.6876 30.2103 53.6761 30.2041L50.1781 28.2481C50.1683 28.2409 50.1609 28.2309 50.157 28.2194C50.153 28.2079 50.1526 28.1955 50.1559 28.1838C50.1591 28.1721 50.1659 28.1616 50.1752 28.1538C50.1845 28.146 50.196 28.1413 50.2081 28.1401Z" fill="white"/>
<path d="M98.4005 43.1579V43.2719H95.5325L88.3325 32.6219H82.5185V43.2719H80.0225V17.5979H89.7245C94.2965 17.5979 97.9205 20.8799 97.9205 25.1459C97.9205 28.9979 95.2745 31.8659 91.0865 32.5079L98.4005 43.1579ZM89.6225 30.3599C93.2225 30.3599 95.4365 28.2419 95.4365 25.1819C95.4365 22.1219 93.0965 19.8599 89.7305 19.8599H82.5305V30.3599H89.6225Z" fill="#F9F9F9"/>
<path d="M119.298 41.0039V43.2719H103.626V17.5979H118.956V19.8599H106.122V28.9979H117.408V31.1999H106.122V40.9799L119.298 41.0039Z" fill="#F9F9F9"/>
<path d="M151.278 43.2719H148.878L146.4 25.5599C146.267 24.7231 146.179 23.88 146.136 23.0339C145.644 23.8619 145.194 24.6179 144.738 25.3379L137.538 36.9299H136.974L129.774 25.2599C129.36 24.6179 128.904 23.8619 128.454 23.1059C128.376 23.9759 128.226 24.8099 128.112 25.5599L125.64 43.2719H123.186L126.852 17.3999H127.602L135.648 30.4619C136.176 31.2959 136.704 32.1599 137.232 33.1799C137.76 32.1599 138.288 31.2959 138.816 30.4259L146.898 17.3999H147.6L151.278 43.2719Z" fill="#F9F9F9"/>
<path d="M157.284 17.5979H159.774V43.2719H157.284V17.5979Z" fill="#F9F9F9"/>
<path d="M164.305 43.1999L173.785 29.9459L165.103 17.6699V17.5979H168.001L172.759 24.2819C173.587 25.4819 174.457 26.7299 175.285 28.0919C176.155 26.6939 176.983 25.4099 177.817 24.2039L182.497 17.6039H185.329V17.6759L176.653 29.9399L186.133 43.1999V43.2779H183.259L177.751 35.4779C176.917 34.2779 176.047 33.0779 175.255 31.7759C174.391 33.1379 173.593 34.3079 172.729 35.5139L167.179 43.3139H164.305V43.1999Z" fill="#F9F9F9"/>
</svg>
