<svg width="77" height="80" viewBox="0 0 77 80" fill="none" xmlns="http://www.w3.org/2000/svg">
<path d="M0 68.8604H6.00394V70.898H4.02651V79.7248H1.92871V70.898H0V68.8604Z" fill="white"/>
<path d="M13.2723 73.1075H14.5017C15.1609 73.1075 15.6137 73.0216 15.8601 72.8496C15.9893 72.749 16.0911 72.6175 16.1562 72.4673C16.2213 72.3171 16.2476 72.1529 16.2327 71.9899C16.2396 71.7656 16.1754 71.5449 16.0493 71.3594C15.9289 71.1839 15.7565 71.0506 15.5563 70.9782C15.1822 70.8823 14.7957 70.8436 14.41 70.8636H13.2637L13.2723 73.1075ZM11.2031 68.8604H13.9773C15.1771 68.8604 16.0321 68.9673 16.5422 69.1813C17.0537 69.3991 17.4831 69.7733 17.7688 70.2503C18.0902 70.7809 18.2524 71.3926 18.2359 72.0128C18.2593 72.6496 18.0785 73.2771 17.7201 73.8039C17.3312 74.3196 16.7912 74.7013 16.1754 74.8958L18.7546 79.7248H16.4877L14.0432 75.1251H13.2723V79.7248H11.2031V68.8604Z" fill="white"/>
<path d="M24.0068 68.8604H26.0788V75.8874C26.055 76.3215 26.1094 76.7564 26.2393 77.1713C26.3432 77.4234 26.5276 77.634 26.7637 77.7703C27.0304 77.9281 27.3366 78.0066 27.6464 77.9967C27.9772 78.0057 28.3036 77.9192 28.5864 77.7473C28.8332 77.5992 29.0253 77.3749 29.1338 77.1083C29.2619 76.6254 29.3131 76.1254 29.2857 75.6266V68.8604H31.3605V75.3372C31.3921 76.1003 31.3306 76.8644 31.1771 77.6127C31.036 78.0687 30.7952 78.4877 30.4721 78.8392C30.1426 79.2136 29.7319 79.5076 29.2713 79.699C28.7686 79.8999 28.2306 79.9974 27.6894 79.9856C26.9658 80.0019 26.2525 79.8131 25.6317 79.4411C25.0886 79.1227 24.6526 78.6498 24.3793 78.0826C24.129 77.5381 24.0039 76.6182 24.0039 75.3228L24.0068 68.8604Z" fill="white"/>
<path d="M37.623 68.8604H43.0166V70.875H39.6779V72.8496H43.0166V74.8356H39.6779V79.7248H37.623V68.8604Z" fill="white"/>
<path d="M48.7393 68.8604H54.1328V70.875H50.7941V72.8496H54.1328V74.8356H50.7941V79.7248H48.7393V68.8604Z" fill="white"/>
<path d="M59.8389 68.8604H61.908V77.7531H64.92V79.7248H59.8389V68.8604Z" fill="white"/>
<path d="M70.127 68.8604H76.0564V70.8836H72.1789V72.8496H76.0564V74.8356H72.1789V77.6957H76.0564V79.7248H70.127V68.8604Z" fill="white"/>
<path d="M37.9804 58.5435C53.96 58.5435 66.914 45.4381 66.914 29.2717C66.914 13.1054 53.96 0 37.9804 0C22.0009 0 9.04688 13.1054 9.04688 29.2717C9.04688 45.4381 22.0009 58.5435 37.9804 58.5435Z" fill="#5E464D"/>
<path d="M28.8824 55.2276C30.066 55.6317 34.0409 56.9242 34.21 55.6604C34.3017 54.9668 32.2039 54.2561 29.3639 52.7515C25.3246 50.6167 21.6293 47.8866 18.402 44.6527C13.6914 40.0338 10.9827 33.75 10.8591 27.1538C10.6184 18.2984 14.0803 11.1395 19.7747 6.51978C16.3363 9.1737 13.5333 12.5614 11.57 16.4359C9.60672 20.3104 8.53263 24.5741 8.42601 28.9163C8.25692 35.3215 10.0481 40.7179 13.4126 45.6299C14.4573 46.9793 15.6786 48.1823 17.0436 49.2065C20.2677 51.6453 24.982 53.9007 28.8824 55.2248" fill="white"/>
<path d="M67.3128 22.5628C65.5188 14.1258 59.9419 8.21929 52.4821 4.04662C58.1765 8.10752 66.2152 16.7423 61.4808 24.3597C57.4687 30.4611 47.7105 29.266 42.38 26.3658C36.0408 22.9268 28.0995 15.189 35.9319 7.62319C41.0015 2.72833 57.1391 8.21642 54.299 15.5329C52.6426 19.7887 46.1944 18.843 43.2942 16.7624C41.1563 15.2263 39.3565 12.5868 40.308 9.86142C40.6146 8.98733 40.5717 7.63179 39.3365 8.6291C38.4165 9.37422 37.9523 10.6008 37.7918 11.7414C36.442 21.2818 53.4393 28.6786 58.4803 19.4477C61.0997 14.656 56.8582 7.6977 51.5192 4.84905C47.507 2.69967 43.3286 1.18937 38.2131 1.5562C30.0282 2.12937 23.1588 7.25923 22.299 15.6218C21.4393 23.9327 26.9962 31.4126 33.5389 35.8862C40.4169 40.5861 49.6621 43.6841 58.1221 40.8813C65.7051 38.368 68.8375 29.6644 67.3128 22.56" fill="white"/>
<path d="M56.64 16.1002C57.4539 10.6322 52.5103 6.8779 47.945 5.17272C42.563 3.16663 35.4528 4.04358 31.5323 8.49997C28.6665 11.7728 28.8528 16.5243 30.3315 20.3703C32.5669 26.1794 37.6137 30.3778 43.4886 32.1919C47.6613 33.4815 52.7109 34.0432 56.9409 32.6819C63.1111 30.6959 65.12 24.2621 63.8447 18.3671C63.5717 17.0927 63.1524 15.8541 62.5952 14.6759C61.8157 13.0395 59.4428 9.72655 62.7184 13.7617C63.0633 14.2114 63.381 14.6812 63.6699 15.1688C64.3486 16.2837 64.8867 17.4782 65.2719 18.7253C67.0659 24.2277 65.6588 30.6472 60.6866 33.9687C56.8721 36.5107 52.0231 36.8145 47.5982 36.1783C41.666 35.3185 36.0747 32.4527 32.1886 27.8415C28.6407 23.6374 26.2191 17.599 27.6778 12.0794C28.7467 8.04143 32.0253 5.02657 35.9515 3.76846C40.918 2.16072 46.3831 2.90871 50.8538 5.51949C53.0949 6.82345 55.1526 8.62893 56.2846 10.9961C56.8031 12.0625 57.0819 13.2295 57.1014 14.4151C57.1128 14.8953 57.0753 15.3754 56.9896 15.848C56.9581 16.0199 56.5941 16.5043 56.6457 16.1059" fill="#3FE0C5"/>
</svg>
