<svg width="185" height="40" viewBox="0 0 185 40" fill="none" xmlns="http://www.w3.org/2000/svg">
<path d="M75.2164 24.9916C75.2164 27.1623 74.6912 28.694 73.6468 29.5926C72.4651 30.5963 70.3732 31.101 67.371 31.101H53.7109V9.20166H66.913C69.8685 9.20166 71.8816 9.61888 72.9582 10.4533C74.026 11.2819 74.5629 12.7582 74.5629 14.8851C74.5629 16.4139 74.3003 17.5284 73.7751 18.2287C73.25 18.9551 72.2638 19.4715 70.8138 19.775C72.5702 19.9734 73.7751 20.5219 74.4345 21.4176C74.9538 22.1382 75.2164 23.3286 75.2164 24.9916ZM69.5009 15.3082C69.5009 14.2987 69.3142 13.651 68.9407 13.368C68.4593 13.0003 67.3885 12.8136 65.7284 12.8136H58.735V18.3599H65.6555C67.1464 18.3599 68.1617 18.1411 68.7073 17.7035C69.2383 17.2892 69.5009 16.4898 69.5009 15.3082ZM70.1194 24.6619C70.1194 23.4161 69.8889 22.5846 69.4279 22.1674C68.9465 21.7706 67.9866 21.5751 66.5454 21.5751H58.735V27.5241H66.2828C67.7503 27.5241 68.7598 27.3257 69.3025 26.9318C69.8481 26.5583 70.1194 25.7998 70.1194 24.6619Z" fill="#F9F9F9"/>
<path d="M96.6601 9.19775H78.5273V12.8126H96.6601V9.19775Z" fill="#F7A501"/>
<path d="M96.6601 31.0997V27.5227H83.5864V21.7109H96.6601V18.2974H78.5273V31.0997H96.6601Z" fill="#F9F9F9"/>
<path d="M121.247 16.6269C121.247 19.4278 120.666 21.368 119.508 22.4416C118.347 23.5124 116.182 24.0463 113.008 24.0463H105.288V31.101H100.229V9.20166H111.753C115.28 9.20166 117.638 9.56345 118.819 10.2841C120.436 11.2673 121.247 13.3796 121.247 16.6269ZM116.252 16.8136C116.252 15.1944 115.966 14.1236 115.397 13.5985C114.828 13.0762 113.623 12.8136 111.785 12.8136H105.285V20.4285H111.657C113.757 20.4285 115.102 20.1105 115.698 19.4745C116.068 19.0806 116.252 18.1936 116.252 16.8136Z" fill="#F9F9F9"/>
<path d="M133.011 23.2813H124.97V19.999H133.011V23.2813Z" fill="#F9F9F9"/>
<path d="M158.245 31.1007H138.414V26.7972C138.414 24.151 139.354 22.2925 141.235 21.2188C142.706 20.3844 144.917 19.9672 147.873 19.9672C150.303 19.9672 151.89 19.6404 152.634 18.9898C153.18 18.5026 153.451 17.5602 153.451 16.1597C153.451 14.7389 153.157 13.7877 152.57 13.3063C151.89 12.7345 150.566 12.4486 148.594 12.4486C146.254 12.4486 144.798 12.6557 144.226 13.0729C143.526 13.601 143.176 14.9169 143.176 17.0175H138.414C138.414 13.9511 138.939 11.9147 139.992 10.9081C141.329 9.63603 144.197 9 148.594 9C152.27 9 154.82 9.51642 156.24 10.5463C157.577 11.5091 158.245 13.2276 158.245 15.7017C158.245 18.7009 157.545 20.647 156.144 21.5456C155.38 22.027 153.192 22.5522 149.58 23.124C148.179 23.3428 146.79 23.5616 145.41 23.7805C143.963 24.1918 143.237 24.9679 143.237 26.1058L143.173 27.6842H158.242V31.1007H158.245Z" fill="#F9F9F9"/>
<path d="M184.153 22.4967C184.153 25.601 183.649 27.7221 182.639 28.8629C181.195 30.488 178.251 31.299 173.811 31.299C169.428 31.299 166.47 30.7505 164.941 29.6564C163.322 28.4982 162.511 26.2516 162.511 22.9227V18.1291C162.511 14.5871 163.056 12.256 164.148 11.1386C165.548 9.71188 168.626 8.99707 173.379 8.99707C177.586 8.99707 180.433 9.61267 181.918 10.841C183.409 12.0868 184.156 14.5463 184.156 18.2225V22.4967H184.153ZM179.424 23.2903V17.3793C179.424 15.3195 179.094 14.0066 178.438 13.4347C177.694 12.7783 175.999 12.4486 173.347 12.4486C170.525 12.4486 168.795 12.7462 168.159 13.3384C167.523 13.9307 167.205 15.4099 167.205 17.7731V23.3545C167.205 25.2217 167.523 26.4063 168.159 26.9081C168.944 27.5383 170.805 27.8534 173.738 27.8534C176.191 27.8534 177.755 27.5704 178.435 27.0044C179.094 26.4354 179.424 25.1984 179.424 23.2903Z" fill="#F9F9F9"/>
<path d="M20 40C31.0457 40 40 31.0457 40 20C40 8.9543 31.0457 0 20 0C8.95431 0 0 8.9543 0 20C0 31.0457 8.95431 40 20 40Z" fill="#F7A501"/>
<path d="M16.5837 14.4337L20.0177 12.1522L21.459 13.1091L21.4415 13.1208L23.4167 14.4337C24.9601 15.4607 26.9936 15.3557 28.4233 14.177L23.8835 11.414L20.0002 9.05078L17.8178 10.3783L11.5771 14.177C13.0068 15.3528 15.0403 15.4578 16.5837 14.4337Z" fill="black"/>
<path d="M16.4209 27.3731L20.0008 30.953L23.5806 27.3731L20.0008 24.2222L16.4209 27.3731Z" fill="black"/>
<path d="M13.6311 18.5789L13.6077 18.5964L12.8141 17.8962C11.0257 16.3207 8.42026 16.0931 6.38379 17.3331L10.1008 21.0501L14.6114 25.5607L18.2058 22.5993L13.6311 18.5789Z" fill="black"/>
<path d="M33.615 17.3365C31.5785 16.0966 28.9731 16.3241 27.1847 17.8996L26.3911 18.5998L26.3677 18.5823L21.7959 22.5998L25.3904 25.5612L29.9009 21.0506L33.615 17.3365Z" fill="black"/>
<path d="M15.7236 17.3366L20.0008 20.8407L24.2809 17.3366L20.0008 14.3286L15.7236 17.3366Z" fill="black"/>
</svg>
