<svg width="209" height="40" viewBox="0 0 209 40" fill="none" xmlns="http://www.w3.org/2000/svg">
<path d="M183.34 20.1698C182.269 19.463 181.088 18.9605 179.971 18.3322C179.246 17.9239 178.474 17.5625 177.845 17.0442C176.773 16.1647 176.994 14.4371 178.113 13.6831C179.719 12.6151 182.379 13.2119 182.663 15.3951C182.663 15.4422 182.71 15.4737 182.757 15.4737H185.183C185.246 15.4737 185.293 15.4265 185.277 15.3637C185.151 13.8559 184.568 12.5994 183.498 11.7983C182.474 11.0287 181.309 10.6204 180.064 10.6204C173.656 10.6204 173.073 17.3898 176.521 19.5259C176.915 19.7772 180.3 21.4734 181.498 22.2116C182.694 22.9498 183.073 24.3006 182.553 25.3686C182.08 26.3424 180.852 27.0178 179.624 26.9392C178.285 26.8607 177.246 26.1383 176.883 25.0074C176.82 24.8032 176.789 24.4105 176.789 24.2378C176.789 24.1906 176.742 24.1435 176.694 24.1435H174.065C174.018 24.1435 173.971 24.1906 173.971 24.2378C173.971 26.1383 174.443 27.1905 175.734 28.1487C176.946 29.0596 178.269 29.4366 179.64 29.4366C183.23 29.4366 185.088 27.4104 185.465 25.3058C185.796 23.2482 185.183 21.3949 183.34 20.1698Z" fill="white"/>
<path d="M69.1603 10.9658H67.9951H66.7195C66.6723 10.9658 66.6408 10.9972 66.625 11.0286L64.4678 18.1279C64.4363 18.2222 64.3103 18.2222 64.2788 18.1279L62.1215 11.0286C62.1057 10.9815 62.0742 10.9658 62.0269 10.9658H60.7515H59.5862H58.0115C57.9643 10.9658 57.917 11.0129 57.917 11.0601V29.1852C57.917 29.2323 57.9643 29.2794 58.0115 29.2794H60.6412C60.6885 29.2794 60.7358 29.2323 60.7358 29.1852V15.4107C60.7358 15.3008 60.8932 15.2851 60.9247 15.3793L63.0977 22.5257L63.2552 23.0283C63.2709 23.0754 63.3024 23.0912 63.3497 23.0912H65.3654C65.4125 23.0912 65.444 23.0597 65.4598 23.0283L65.6172 22.5257L67.7903 15.3793C67.8218 15.2694 67.9793 15.3008 67.9793 15.4107V29.1852C67.9793 29.2323 68.0266 29.2794 68.0737 29.2794H70.7035C70.7507 29.2794 70.798 29.2323 70.798 29.1852V11.0601C70.798 11.0129 70.7507 10.9658 70.7035 10.9658H69.1603Z" fill="white"/>
<path d="M143.075 10.9658C143.027 10.9658 142.996 10.9972 142.98 11.0286L140.824 18.1279C140.792 18.2222 140.666 18.2222 140.635 18.1279L138.477 11.0286C138.461 10.9815 138.43 10.9658 138.383 10.9658H134.383C134.335 10.9658 134.288 11.0129 134.288 11.0601V29.1852C134.288 29.2323 134.335 29.2794 134.383 29.2794H137.013C137.06 29.2794 137.107 29.2323 137.107 29.1852V15.4107C137.107 15.3008 137.265 15.2851 137.297 15.3793L139.469 22.5257L139.626 23.0283C139.642 23.0754 139.674 23.0912 139.721 23.0912H141.737C141.784 23.0912 141.815 23.0597 141.831 23.0283L141.989 22.5257L144.162 15.3793C144.194 15.2694 144.351 15.3008 144.351 15.4107V29.1852C144.351 29.2323 144.398 29.2794 144.446 29.2794H147.075C147.122 29.2794 147.169 29.2323 147.169 29.1852V11.0601C147.169 11.0129 147.122 10.9658 147.075 10.9658H143.075Z" fill="white"/>
<path d="M109.157 10.9658H104.26H101.63H96.7332C96.6859 10.9658 96.6387 11.0129 96.6387 11.0601V13.3217C96.6387 13.3689 96.6859 13.416 96.7332 13.416H101.536V29.1852C101.536 29.2323 101.583 29.2794 101.63 29.2794H104.26C104.307 29.2794 104.355 29.2323 104.355 29.1852V13.416H109.157C109.205 13.416 109.252 13.3689 109.252 13.3217V11.0601C109.252 11.0129 109.22 10.9658 109.157 10.9658Z" fill="white"/>
<path d="M124.668 29.2792H127.061C127.124 29.2792 127.171 29.2164 127.155 29.1537L122.211 10.9657C122.195 10.9185 122.164 10.9028 122.116 10.9028H121.203H119.597H118.684C118.636 10.9028 118.605 10.9342 118.589 10.9657L113.645 29.1537C113.629 29.2164 113.676 29.2792 113.739 29.2792H116.133C116.18 29.2792 116.211 29.2478 116.227 29.2164L117.66 23.9234C117.676 23.8763 117.707 23.8606 117.755 23.8606H123.046C123.093 23.8606 123.125 23.892 123.141 23.9234L124.573 29.2164C124.589 29.2478 124.636 29.2792 124.668 29.2792ZM118.384 21.2691L120.306 14.1854C120.337 14.0912 120.463 14.0912 120.495 14.1854L122.416 21.2691C122.431 21.3318 122.384 21.3946 122.321 21.3946H118.479C118.416 21.3946 118.369 21.3318 118.384 21.2691Z" fill="white"/>
<path d="M165.484 29.2792H167.877C167.94 29.2792 167.987 29.2164 167.971 29.1537L163.027 10.9657C163.011 10.9185 162.98 10.9028 162.933 10.9028H162.02H160.414H159.5C159.453 10.9028 159.421 10.9342 159.405 10.9657L154.461 29.1537C154.445 29.2164 154.493 29.2792 154.556 29.2792H156.95C156.997 29.2792 157.028 29.2478 157.044 29.2164L158.477 23.9234C158.493 23.8763 158.524 23.8606 158.571 23.8606H163.862C163.91 23.8606 163.941 23.892 163.957 23.9234L165.39 29.2164C165.405 29.2478 165.437 29.2792 165.484 29.2792ZM159.2 21.2691L161.122 14.1854C161.153 14.0912 161.279 14.0912 161.311 14.1854L163.232 21.2691C163.248 21.3318 163.2 21.3946 163.137 21.3946H159.295C159.232 21.3946 159.185 21.3318 159.2 21.2691Z" fill="white"/>
<path d="M81.4739 26.5938V20.9709C81.4739 20.9239 81.5212 20.8767 81.5685 20.8767H88.5758C88.623 20.8767 88.6703 20.8296 88.6703 20.7824V18.5207C88.6703 18.4737 88.623 18.4265 88.5758 18.4265H81.5685C81.5212 18.4265 81.4739 18.3794 81.4739 18.3322V13.5262C81.4739 13.479 81.5212 13.4319 81.5685 13.4319H89.5364C89.5836 13.4319 89.6309 13.3847 89.6309 13.3377V11.0759C89.6309 11.0288 89.5836 10.9817 89.5364 10.9817H81.4739H78.7498C78.7025 10.9817 78.6553 11.0288 78.6553 11.0759V13.4319V18.4422V20.8925V26.7037V29.1853C78.6553 29.2325 78.7025 29.2796 78.7498 29.2796H81.4739H89.867C89.9143 29.2796 89.9616 29.2325 89.9616 29.1853V26.798C89.9616 26.7509 89.9143 26.7037 89.867 26.7037H81.5527C81.5055 26.6881 81.4739 26.6566 81.4739 26.5938Z" fill="white"/>
<path d="M207.37 29.1225L198.268 19.7458C198.236 19.7144 198.236 19.6516 198.268 19.6202L206.457 11.1388C206.52 11.0759 206.473 10.9817 206.394 10.9817H203.04C203.008 10.9817 202.993 10.9974 202.977 11.0131L196.033 18.2066C195.97 18.2694 195.875 18.2223 195.875 18.1437V11.0759C195.875 11.0288 195.828 10.9817 195.781 10.9817H193.15C193.103 10.9817 193.056 11.0288 193.056 11.0759V29.2011C193.056 29.2482 193.103 29.2954 193.15 29.2954H195.781C195.828 29.2954 195.875 29.2482 195.875 29.2011V21.2223C195.875 21.1437 195.985 21.0966 196.033 21.1594L203.905 29.2639C203.921 29.2796 203.953 29.2954 203.968 29.2954H207.322C207.385 29.2796 207.433 29.1697 207.37 29.1225Z" fill="white"/>
<path d="M39.9494 1.21216L24.0293 12.9919L26.9898 6.04972L39.9494 1.21216Z" fill="#E17726" stroke="#E17726" stroke-width="0.25" stroke-linecap="round" stroke-linejoin="round"/>
<path d="M3.22754 1.21216L19.0059 13.1019L16.1872 6.04971L3.22754 1.21216Z" fill="#E27625" stroke="#E27625" stroke-width="0.25" stroke-linecap="round" stroke-linejoin="round"/>
<path d="M34.2173 28.5254L29.9814 34.9964L39.0516 37.4938L41.6499 28.6668L34.2173 28.5254Z" fill="#E27625" stroke="#E27625" stroke-width="0.25" stroke-linecap="round" stroke-linejoin="round"/>
<path d="M1.54297 28.6668L4.12544 37.4938L13.1799 34.9964L8.95973 28.5254L1.54297 28.6668Z" fill="#E27625" stroke="#E27625" stroke-width="0.25" stroke-linecap="round" stroke-linejoin="round"/>
<path d="M12.6913 17.5939L10.1719 21.3948L19.1476 21.8032L18.8484 12.1438L12.6913 17.5939Z" fill="#E27625" stroke="#E27625" stroke-width="0.25" stroke-linecap="round" stroke-linejoin="round"/>
<path d="M30.4854 17.594L24.234 12.0339L24.0293 21.8033L33.0049 21.3949L30.4854 17.594Z" fill="#E27625" stroke="#E27625" stroke-width="0.25" stroke-linecap="round" stroke-linejoin="round"/>
<path d="M13.1797 34.9964L18.6123 32.3735L13.9356 28.7296L13.1797 34.9964Z" fill="#E27625" stroke="#E27625" stroke-width="0.25" stroke-linecap="round" stroke-linejoin="round"/>
<path d="M24.5645 32.3734L29.9813 34.9963L29.2412 28.7295L24.5645 32.3734Z" fill="#E27625" stroke="#E27625" stroke-width="0.25" stroke-linecap="round" stroke-linejoin="round"/>
<path d="M29.9813 34.9967L24.5645 32.3738L25.0053 35.892L24.958 37.3841L29.9813 34.9967Z" fill="#D5BFB2" stroke="#D5BFB2" stroke-width="0.25" stroke-linecap="round" stroke-linejoin="round"/>
<path d="M13.1797 34.9966L18.2187 37.384L18.1872 35.8918L18.6123 32.3737L13.1797 34.9966Z" fill="#D5BFB2" stroke="#D5BFB2" stroke-width="0.25" stroke-linecap="round" stroke-linejoin="round"/>
<path d="M18.3132 26.405L13.8096 25.0857L16.9904 23.625L18.3132 26.405Z" fill="#233447" stroke="#233447" stroke-width="0.25" stroke-linecap="round" stroke-linejoin="round"/>
<path d="M24.8633 26.405L26.1861 23.625L29.3827 25.0857L24.8633 26.405Z" fill="#233447" stroke="#233447" stroke-width="0.25" stroke-linecap="round" stroke-linejoin="round"/>
<path d="M13.1801 34.9964L13.9675 28.5254L8.95996 28.6668L13.1801 34.9964Z" fill="#CC6228" stroke="#CC6228" stroke-width="0.25" stroke-linecap="round" stroke-linejoin="round"/>
<path d="M29.21 28.5254L29.9816 34.9964L34.2175 28.6668L29.21 28.5254Z" fill="#CC6228" stroke="#CC6228" stroke-width="0.25" stroke-linecap="round" stroke-linejoin="round"/>
<path d="M33.0049 21.3948L24.0293 21.8031L24.8638 26.4052L26.1866 23.6251L29.3832 25.0858L33.0049 21.3948Z" fill="#CC6228" stroke="#CC6228" stroke-width="0.25" stroke-linecap="round" stroke-linejoin="round"/>
<path d="M13.8094 25.0858L16.9902 23.6251L18.313 26.4052L19.1476 21.8031L10.1719 21.3948L13.8094 25.0858Z" fill="#CC6228" stroke="#CC6228" stroke-width="0.25" stroke-linecap="round" stroke-linejoin="round"/>
<path d="M10.1719 21.3948L13.9354 28.7297L13.8093 25.0858L10.1719 21.3948Z" fill="#E27525" stroke="#E27525" stroke-width="0.25" stroke-linecap="round" stroke-linejoin="round"/>
<path d="M29.3839 25.0858L29.2422 28.7297L33.0057 21.3948L29.3839 25.0858Z" fill="#E27525" stroke="#E27525" stroke-width="0.25" stroke-linecap="round" stroke-linejoin="round"/>
<path d="M19.1481 21.803L18.3135 26.405L19.3685 31.8393L19.6048 24.6773L19.1481 21.803Z" fill="#E27525" stroke="#E27525" stroke-width="0.25" stroke-linecap="round" stroke-linejoin="round"/>
<path d="M24.0289 21.803L23.5879 24.6616L23.8084 31.8393L24.8634 26.405L24.0289 21.803Z" fill="#E27525" stroke="#E27525" stroke-width="0.25" stroke-linecap="round" stroke-linejoin="round"/>
<path d="M24.8636 26.4053L23.8086 31.8396L24.5645 32.3737L29.2413 28.7298L29.383 25.0859L24.8636 26.4053Z" fill="#F5841F" stroke="#F5841F" stroke-width="0.25" stroke-linecap="round" stroke-linejoin="round"/>
<path d="M13.8096 25.0859L13.9356 28.7298L18.6124 32.3737L19.3682 31.8396L18.3132 26.4053L13.8096 25.0859Z" fill="#F5841F" stroke="#F5841F" stroke-width="0.25" stroke-linecap="round" stroke-linejoin="round"/>
<path d="M24.9584 37.3839L25.0055 35.8917L24.5962 35.5462H18.5809L18.1872 35.8917L18.2187 37.3839L13.1797 34.9965L14.9433 36.4414L18.5179 38.9074H24.6433L28.2336 36.4414L29.9815 34.9965L24.9584 37.3839Z" fill="#C0AC9D" stroke="#C0AC9D" stroke-width="0.25" stroke-linecap="round" stroke-linejoin="round"/>
<path d="M24.565 32.3735L23.8091 31.8396H19.3685L18.6127 32.3735L18.1875 35.8918L18.5812 35.5463H24.5965L25.0059 35.8918L24.565 32.3735Z" fill="white" stroke="white" stroke-width="0.25" stroke-linecap="round" stroke-linejoin="round"/>
<path d="M40.6261 13.7615L41.9647 7.2591L39.9491 1.21216L24.5645 12.5993L30.4852 17.5939L38.8468 20.0284L40.6892 17.8766L39.8861 17.2954L41.1615 16.1332L40.1853 15.3793L41.4608 14.4055L40.6261 13.7615Z" fill="#763E1A" stroke="#763E1A" stroke-width="0.25" stroke-linecap="round" stroke-linejoin="round"/>
<path d="M1.21191 7.2591L2.56614 13.7615L1.70007 14.4055L2.99131 15.3793L2.015 16.1332L3.2905 17.2954L2.4874 17.8766L4.32979 20.0284L12.6914 17.5939L18.6122 12.5993L3.22751 1.21216L1.21191 7.2591Z" fill="#763E1A" stroke="#763E1A" stroke-width="0.25" stroke-linecap="round" stroke-linejoin="round"/>
<path d="M38.8478 20.0282L30.4862 17.5938L33.0057 21.3947L29.2422 28.7295L34.2182 28.6667H41.6507L38.8478 20.0282Z" fill="#F5841F" stroke="#F5841F" stroke-width="0.25" stroke-linecap="round" stroke-linejoin="round"/>
<path d="M12.6917 17.5938L4.33016 20.0282L1.54297 28.6667H8.95973L13.9357 28.7295L10.1722 21.3947L12.6917 17.5938Z" fill="#F5841F" stroke="#F5841F" stroke-width="0.25" stroke-linecap="round" stroke-linejoin="round"/>
<path d="M24.0294 21.8031L24.5648 12.5991L26.9898 6.04956H16.1875L18.6125 12.5991L19.1479 21.8031L19.3526 24.693L19.3683 31.8394H23.809L23.8247 24.693L24.0294 21.8031Z" fill="#F5841F" stroke="#F5841F" stroke-width="0.25" stroke-linecap="round" stroke-linejoin="round"/>
</svg>
