<svg width="151" height="68" viewBox="0 0 151 68" fill="none" xmlns="http://www.w3.org/2000/svg">
<path d="M37.8957 22.21C36.4357 22.21 35.1157 21.96 33.9357 21.46C32.7757 20.96 31.8557 20.24 31.1757 19.3C30.4957 18.36 30.1457 17.25 30.1257 15.97H34.6257C34.6857 16.83 34.9857 17.51 35.5257 18.01C36.0857 18.51 36.8457 18.76 37.8057 18.76C38.7857 18.76 39.5557 18.53 40.1157 18.07C40.6757 17.59 40.9557 16.97 40.9557 16.21C40.9557 15.59 40.7657 15.08 40.3857 14.68C40.0057 14.28 39.5257 13.97 38.9457 13.75C38.3857 13.51 37.6057 13.25 36.6057 12.97C35.2457 12.57 34.1357 12.18 33.2757 11.8C32.4357 11.4 31.7057 10.81 31.0857 10.03C30.4857 9.23 30.1857 8.17 30.1857 6.85C30.1857 5.61 30.4957 4.53 31.1157 3.61C31.7357 2.69 32.6057 1.99 33.7257 1.51C34.8457 1.01 36.1257 0.76 37.5657 0.76C39.7257 0.76 41.4757 1.29 42.8157 2.35C44.1757 3.39 44.9257 4.85 45.0657 6.73H40.4457C40.4057 6.01 40.0957 5.42 39.5157 4.96C38.9557 4.48 38.2057 4.24 37.2657 4.24C36.4457 4.24 35.7857 4.45 35.2857 4.87C34.8057 5.29 34.5657 5.9 34.5657 6.7C34.5657 7.26 34.7457 7.73 35.1057 8.11C35.4857 8.47 35.9457 8.77 36.4857 9.01C37.0457 9.23 37.8257 9.49 38.8257 9.79C40.1857 10.19 41.2957 10.59 42.1557 10.99C43.0157 11.39 43.7557 11.99 44.3757 12.79C44.9957 13.59 45.3057 14.64 45.3057 15.94C45.3057 17.06 45.0157 18.1 44.4357 19.06C43.8557 20.02 43.0057 20.79 41.8857 21.37C40.7657 21.93 39.4357 22.21 37.8957 22.21ZM69.587 5.14C71.627 5.14 73.267 5.77 74.507 7.03C75.767 8.27 76.397 10.01 76.397 12.25V22H72.197V12.82C72.197 11.52 71.867 10.53 71.207 9.85C70.547 9.15 69.647 8.8 68.507 8.8C67.367 8.8 66.457 9.15 65.777 9.85C65.117 10.53 64.787 11.52 64.787 12.82V22H60.587V12.82C60.587 11.52 60.257 10.53 59.597 9.85C58.937 9.15 58.037 8.8 56.897 8.8C55.737 8.8 54.817 9.15 54.137 9.85C53.477 10.53 53.147 11.52 53.147 12.82V22H48.947V5.38H53.147V7.39C53.687 6.69 54.377 6.14 55.217 5.74C56.077 5.34 57.017 5.14 58.037 5.14C59.337 5.14 60.497 5.42 61.517 5.98C62.537 6.52 63.327 7.3 63.887 8.32C64.427 7.36 65.207 6.59 66.227 6.01C67.267 5.43 68.387 5.14 69.587 5.14ZM79.3025 13.63C79.3025 11.95 79.6325 10.46 80.2925 9.16C80.9725 7.86 81.8825 6.86 83.0225 6.16C84.1825 5.46 85.4725 5.11 86.8925 5.11C88.1325 5.11 89.2125 5.36 90.1325 5.86C91.0725 6.36 91.8225 6.99 92.3825 7.75V5.38H96.6125V22H92.3825V19.57C91.8425 20.35 91.0925 21 90.1325 21.52C89.1925 22.02 88.1025 22.27 86.8625 22.27C85.4625 22.27 84.1825 21.91 83.0225 21.19C81.8825 20.47 80.9725 19.46 80.2925 18.16C79.6325 16.84 79.3025 15.33 79.3025 13.63ZM92.3825 13.69C92.3825 12.67 92.1825 11.8 91.7825 11.08C91.3825 10.34 90.8425 9.78 90.1625 9.4C89.4825 9 88.7525 8.8 87.9725 8.8C87.1925 8.8 86.4725 8.99 85.8125 9.37C85.1525 9.75 84.6125 10.31 84.1925 11.05C83.7925 11.77 83.5925 12.63 83.5925 13.63C83.5925 14.63 83.7925 15.51 84.1925 16.27C84.6125 17.01 85.1525 17.58 85.8125 17.98C86.4925 18.38 87.2125 18.58 87.9725 18.58C88.7525 18.58 89.4825 18.39 90.1625 18.01C90.8425 17.61 91.3825 17.05 91.7825 16.33C92.1825 15.59 92.3825 14.71 92.3825 13.69ZM104.915 7.96C105.455 7.08 106.155 6.39 107.015 5.89C107.895 5.39 108.895 5.14 110.015 5.14V9.55H108.905C107.585 9.55 106.585 9.86 105.905 10.48C105.245 11.1 104.915 12.18 104.915 13.72V22H100.715V5.38H104.915V7.96ZM117.733 8.83V16.87C117.733 17.43 117.863 17.84 118.123 18.1C118.403 18.34 118.863 18.46 119.503 18.46H121.453V22H118.813C115.273 22 113.503 20.28 113.503 16.84V8.83H111.523V5.38H113.503V1.27H117.733V5.38H121.453V8.83H117.733ZM0.495313 56.5C0.495313 54.44 0.955313 52.6 1.87531 50.98C2.81531 49.34 4.08531 48.07 5.68531 47.17C7.30531 46.25 9.11531 45.79 11.1153 45.79C13.4553 45.79 15.5053 46.39 17.2653 47.59C19.0253 48.79 20.2553 50.45 20.9553 52.57H16.1253C15.6453 51.57 14.9653 50.82 14.0853 50.32C13.2253 49.82 12.2253 49.57 11.0853 49.57C9.86531 49.57 8.77531 49.86 7.81531 50.44C6.87531 51 6.13531 51.8 5.59531 52.84C5.07531 53.88 4.81531 55.1 4.81531 56.5C4.81531 57.88 5.07531 59.1 5.59531 60.16C6.13531 61.2 6.87531 62.01 7.81531 62.59C8.77531 63.15 9.86531 63.43 11.0853 63.43C12.2253 63.43 13.2253 63.18 14.0853 62.68C14.9653 62.16 15.6453 61.4 16.1253 60.4H20.9553C20.2553 62.54 19.0253 64.21 17.2653 65.41C15.5253 66.59 13.4753 67.18 11.1153 67.18C9.11531 67.18 7.30531 66.73 5.68531 65.83C4.08531 64.91 2.81531 63.64 1.87531 62.02C0.955313 60.4 0.495313 58.56 0.495313 56.5ZM31.9227 67.27C30.3227 67.27 28.8827 66.92 27.6027 66.22C26.3227 65.5 25.3127 64.49 24.5727 63.19C23.8527 61.89 23.4927 60.39 23.4927 58.69C23.4927 56.99 23.8627 55.49 24.6027 54.19C25.3627 52.89 26.3927 51.89 27.6927 51.19C28.9927 50.47 30.4427 50.11 32.0427 50.11C33.6427 50.11 35.0927 50.47 36.3927 51.19C37.6927 51.89 38.7127 52.89 39.4527 54.19C40.2127 55.49 40.5927 56.99 40.5927 58.69C40.5927 60.39 40.2027 61.89 39.4227 63.19C38.6627 64.49 37.6227 65.5 36.3027 66.22C35.0027 66.92 33.5427 67.27 31.9227 67.27ZM31.9227 63.61C32.6827 63.61 33.3927 63.43 34.0527 63.07C34.7327 62.69 35.2727 62.13 35.6727 61.39C36.0727 60.65 36.2727 59.75 36.2727 58.69C36.2727 57.11 35.8527 55.9 35.0127 55.06C34.1927 54.2 33.1827 53.77 31.9827 53.77C30.7827 53.77 29.7727 54.2 28.9527 55.06C28.1527 55.9 27.7527 57.11 27.7527 58.69C27.7527 60.27 28.1427 61.49 28.9227 62.35C29.7227 63.19 30.7227 63.61 31.9227 63.61ZM52.8835 50.14C54.8635 50.14 56.4635 50.77 57.6835 52.03C58.9035 53.27 59.5135 55.01 59.5135 57.25V67H55.3135V57.82C55.3135 56.5 54.9835 55.49 54.3235 54.79C53.6635 54.07 52.7635 53.71 51.6235 53.71C50.4635 53.71 49.5435 54.07 48.8635 54.79C48.2035 55.49 47.8735 56.5 47.8735 57.82V67H43.6735V50.38H47.8735V52.45C48.4335 51.73 49.1435 51.17 50.0035 50.77C50.8835 50.35 51.8435 50.14 52.8835 50.14ZM68.3975 53.83V61.87C68.3975 62.43 68.5275 62.84 68.7875 63.1C69.0675 63.34 69.5275 63.46 70.1675 63.46H72.1175V67H69.4775C65.9375 67 64.1675 65.28 64.1675 61.84V53.83H62.1875V50.38H64.1675V46.27H68.3975V50.38H72.1175V53.83H68.3975ZM79.3384 52.96C79.8784 52.08 80.5784 51.39 81.4384 50.89C82.3184 50.39 83.3184 50.14 84.4384 50.14V54.55H83.3284C82.0084 54.55 81.0084 54.86 80.3284 55.48C79.6684 56.1 79.3384 57.18 79.3384 58.72V67H75.1384V50.38H79.3384V52.96ZM86.1873 58.63C86.1873 56.95 86.5173 55.46 87.1773 54.16C87.8573 52.86 88.7673 51.86 89.9073 51.16C91.0673 50.46 92.3573 50.11 93.7773 50.11C95.0173 50.11 96.0973 50.36 97.0173 50.86C97.9573 51.36 98.7073 51.99 99.2673 52.75V50.38H103.497V67H99.2673V64.57C98.7273 65.35 97.9773 66 97.0173 66.52C96.0773 67.02 94.9873 67.27 93.7473 67.27C92.3473 67.27 91.0673 66.91 89.9073 66.19C88.7673 65.47 87.8573 64.46 87.1773 63.16C86.5173 61.84 86.1873 60.33 86.1873 58.63ZM99.2673 58.69C99.2673 57.67 99.0673 56.8 98.6673 56.08C98.2673 55.34 97.7273 54.78 97.0473 54.4C96.3673 54 95.6373 53.8 94.8573 53.8C94.0773 53.8 93.3573 53.99 92.6973 54.37C92.0373 54.75 91.4973 55.31 91.0773 56.05C90.6773 56.77 90.4773 57.63 90.4773 58.63C90.4773 59.63 90.6773 60.51 91.0773 61.27C91.4973 62.01 92.0373 62.58 92.6973 62.98C93.3773 63.38 94.0973 63.58 94.8573 63.58C95.6373 63.58 96.3673 63.39 97.0473 63.01C97.7273 62.61 98.2673 62.05 98.6673 61.33C99.0673 60.59 99.2673 59.71 99.2673 58.69ZM106.519 58.69C106.519 56.97 106.869 55.47 107.569 54.19C108.269 52.89 109.239 51.89 110.479 51.19C111.719 50.47 113.139 50.11 114.739 50.11C116.799 50.11 118.499 50.63 119.839 51.67C121.199 52.69 122.109 54.13 122.569 55.99H118.039C117.799 55.27 117.389 54.71 116.809 54.31C116.249 53.89 115.549 53.68 114.709 53.68C113.509 53.68 112.559 54.12 111.859 55C111.159 55.86 110.809 57.09 110.809 58.69C110.809 60.27 111.159 61.5 111.859 62.38C112.559 63.24 113.509 63.67 114.709 63.67C116.409 63.67 117.519 62.91 118.039 61.39H122.569C122.109 63.19 121.199 64.62 119.839 65.68C118.479 66.74 116.779 67.27 114.739 67.27C113.139 67.27 111.719 66.92 110.479 66.22C109.239 65.5 108.269 64.5 107.569 63.22C106.869 61.92 106.519 60.41 106.519 58.69ZM130.536 53.83V61.87C130.536 62.43 130.666 62.84 130.926 63.1C131.206 63.34 131.666 63.46 132.306 63.46H134.256V67H131.616C128.076 67 126.306 65.28 126.306 61.84V53.83H124.326V50.38H126.306V46.27H130.536V50.38H134.256V53.83H130.536ZM143.637 67.27C142.277 67.27 141.057 67.03 139.977 66.55C138.897 66.05 138.037 65.38 137.397 64.54C136.777 63.7 136.437 62.77 136.377 61.75H140.607C140.687 62.39 140.997 62.92 141.537 63.34C142.097 63.76 142.787 63.97 143.607 63.97C144.407 63.97 145.027 63.81 145.467 63.49C145.927 63.17 146.157 62.76 146.157 62.26C146.157 61.72 145.877 61.32 145.317 61.06C144.777 60.78 143.907 60.48 142.707 60.16C141.467 59.86 140.447 59.55 139.647 59.23C138.867 58.91 138.187 58.42 137.607 57.76C137.047 57.1 136.767 56.21 136.767 55.09C136.767 54.17 137.027 53.33 137.547 52.57C138.087 51.81 138.847 51.21 139.827 50.77C140.827 50.33 141.997 50.11 143.337 50.11C145.317 50.11 146.897 50.61 148.077 51.61C149.257 52.59 149.907 53.92 150.027 55.6H146.007C145.947 54.94 145.667 54.42 145.167 54.04C144.687 53.64 144.037 53.44 143.217 53.44C142.457 53.44 141.867 53.58 141.447 53.86C141.047 54.14 140.847 54.53 140.847 55.03C140.847 55.59 141.127 56.02 141.687 56.32C142.247 56.6 143.117 56.89 144.297 57.19C145.497 57.49 146.487 57.8 147.267 58.12C148.047 58.44 148.717 58.94 149.277 59.62C149.857 60.28 150.157 61.16 150.177 62.26C150.177 63.22 149.907 64.08 149.367 64.84C148.847 65.6 148.087 66.2 147.087 66.64C146.107 67.06 144.957 67.27 143.637 67.27Z" fill="#F9F9F9"/>
</svg>
